<?xml version="1.0" encoding="utf-8"?>
<svg version="1.1" xmlns:xlink="http://www.w3.org/1999/xlink" width="94px" height="88px" xmlns="http://www.w3.org/2000/svg">
  <g transform="matrix(1 0 0 1 -861 -222 )">
    <path d="M 25.4736328125 24.5059952038369  C 26.2386067708333 23.6442845723421  26.62109375 22.4924060751399  26.62109375 21.0503597122302  C 26.62109375 19.6083133493205  26.2386067708333 18.4476418864908  25.4736328125 17.568345323741  C 24.7086588541667 16.6890487609912  23.6988932291667 16.2494004796163  22.4443359375 16.2494004796163  C 21.1285807291667 16.2494004796163  19.9658203125 16.6978417266187  18.9560546875 17.5947242206235  C 17.9462890625 18.4916067146283  17.44140625 19.6434852118305  17.44140625 21.0503597122302  C 17.44140625 22.4220623501199  17.9462890625 23.5563549160671  18.9560546875 24.4532374100719  C 19.9658203125 25.3501199040767  21.1285807291667 25.7985611510791  22.4443359375 25.7985611510791  C 23.6988932291667 25.7985611510791  24.7086588541667 25.3677058353317  25.4736328125 24.5059952038369  Z M 59.55322265625 50.4892086330935  C 60.33349609375 49.7154276578737  60.7236328125 48.8185451638689  60.7236328125 47.7985611510791  C 60.7236328125 46.8137490007993  60.33349609375 45.9344524380496  59.55322265625 45.1606714628297  C 58.77294921875 44.3868904876099  57.7708333333333 44  56.546875 44  C 55.720703125 44  54.96337890625 44.3956834532374  54.27490234375 45.1870503597122  C 53.58642578125 45.9784172661871  53.2421875 46.8489208633094  53.2421875 47.7985611510791  C 53.2421875 48.7833733013589  53.58642578125 49.6714628297362  54.27490234375 50.462829736211  C 54.96337890625 51.2541966426859  55.720703125 51.6498800959233  56.546875 51.6498800959233  C 57.7708333333333 51.6498800959233  58.77294921875 51.2629896083133  59.55322265625 50.4892086330935  Z M 48.76708984375 24.5059952038369  C 49.5167643229167 23.6442845723421  49.8916015625 22.4924060751399  49.8916015625 21.0503597122302  C 49.8916015625 19.6083133493205  49.5167643229167 18.4476418864908  48.76708984375 17.568345323741  C 48.0174153645833 16.6890487609912  47.0152994791667 16.2494004796163  45.7607421875 16.2494004796163  C 44.4449869791667 16.2494004796163  43.2822265625 16.6978417266187  42.2724609375 17.5947242206235  C 41.2626953125 18.4916067146283  40.7578125 19.6434852118305  40.7578125 21.0503597122302  C 40.7578125 22.4220623501199  41.2626953125 23.5563549160671  42.2724609375 24.4532374100719  C 43.2822265625 25.3501199040767  44.4449869791667 25.7985611510791  45.7607421875 25.7985611510791  C 47.0152994791667 25.7985611510791  48.0174153645833 25.3677058353317  48.76708984375 24.5059952038369  Z M 77.84375 50.4892086330935  C 78.6393229166667 49.7154276578737  79.037109375 48.8185451638689  79.037109375 47.7985611510791  C 79.037109375 46.8137490007993  78.6393229166667 45.9344524380496  77.84375 45.1606714628297  C 77.0481770833333 44.3868904876099  76.0537109375 44  74.8603515625 44  C 74.0341796875 44  73.27685546875 44.3956834532374  72.58837890625 45.1870503597122  C 71.89990234375 45.9784172661871  71.5556640625 46.8489208633094  71.5556640625 47.7985611510791  C 71.5556640625 48.7833733013589  71.89990234375 49.6714628297362  72.58837890625 50.462829736211  C 73.27685546875 51.2541966426859  74.0341796875 51.6498800959233  74.8603515625 51.6498800959233  C 76.0537109375 51.6498800959233  77.0481770833333 51.2629896083133  77.84375 50.4892086330935  Z M 60.56298828125 13.1103117505995  C 63.7911783854167 17.2078337330136  65.8795572916667 21.78896882494  66.828125 26.8537170263789  C 65.8795572916667 26.7130295763389  64.80859375 26.6426858513189  63.615234375 26.6426858513189  C 58.4440104166667 26.6426858513189  53.6858723958333 27.9968025579536  49.3408203125 30.705035971223  C 44.9957682291667 33.4132693844924  41.5763346354167 37.0799360511591  39.08251953125 41.705035971223  C 36.5887044270833 46.330135891287  35.341796875 51.3860911270983  35.341796875 56.8729016786571  C 35.341796875 59.6163069544365  35.6936848958333 62.2893685051958  36.3974609375 64.8920863309353  C 35.3264973958333 64.9976019184652  34.2861328125 65.0503597122302  33.2763671875 65.0503597122302  C 32.4807942708333 65.0503597122302  31.7158203125 65.0239808153477  30.9814453125 64.9712230215827  C 30.2470703125 64.9184652278177  29.4055989583333 64.8041566746603  28.45703125 64.6282973621103  C 27.5084635416667 64.4524380495604  26.82763671875 64.3293365307754  26.41455078125 64.2589928057554  C 26.00146484375 64.1886490807354  25.1676432291667 64.003996802558  23.9130859375 63.705035971223  C 22.6585286458333 63.4060751398881  21.8935546875 63.2214228617106  21.6181640625 63.1510791366906  L 10.005859375 69.8513189448441  L 13.310546875 58.3501199040767  C 4.43684895833333 51.2102318145484  0 42.5931254996003  0 32.4988009592326  C 0 26.554756195044  1.49169921875 21.0855315747402  4.47509765625 16.0911270983213  C 7.45849609375 11.0967226219025  11.49755859375 7.16626698641086  16.59228515625 4.29976019184653  C 21.68701171875 1.43325339728217  27.2483723958333 0  33.2763671875 0  C 38.6617838541667 0  43.7488606770833 1.16067146282974  48.53759765625 3.48201438848921  C 53.3263346354167 5.80335731414868  57.3347981770833 9.01278976818545  60.56298828125 13.1103117505995  Z M 90.07568359375 42.5491606714628  C 92.69189453125 46.8225419664269  94 51.4564348521183  94 56.4508393285372  C 94 60.5659472422062  92.9519856770833 64.4964028776978  90.85595703125 68.242206235012  C 88.7599283854167 71.9880095923261  85.921875 75.3908872901679  82.341796875 78.4508393285372  L 84.8662109375 88  L 75.732421875 82.2494004796163  C 71.142578125 83.550759392486  67.8072916666667 84.2014388489209  65.7265625 84.2014388489209  C 60.5553385416667 84.2014388489209  55.7972005208333 82.9616306954436  51.4521484375 80.4820143884892  C 47.1070963541667 78.0023980815348  43.6876627604167 74.634692246203  41.19384765625 70.378896882494  C 38.7000325520833 66.123101518785  37.453125 61.480415667466  37.453125 56.4508393285372  C 37.453125 51.4212629896083  38.7000325520833 46.7785771382894  41.19384765625 42.5227817745803  C 43.6876627604167 38.2669864108713  47.1070963541667 34.8992805755396  51.4521484375 32.4196642685851  C 55.7972005208333 29.9400479616307  60.5553385416667 28.7002398081535  65.7265625 28.7002398081535  C 70.6529947916667 28.7002398081535  75.2887369791667 29.9400479616307  79.6337890625 32.4196642685851  C 83.9788411458333 34.8992805755396  87.45947265625 38.2757793764988  90.07568359375 42.5491606714628  Z " fill-rule="nonzero" fill="#fafafa" stroke="none" transform="matrix(1 0 0 1 861 222 )" />
  </g>
</svg>