<?xml version="1.0" encoding="utf-8"?>
<svg version="1.1" xmlns:xlink="http://www.w3.org/1999/xlink" width="55px" height="60px" xmlns="http://www.w3.org/2000/svg">
  <g transform="matrix(1 0 0 1 -534 -2463 )">
    <path d="M 45.1529947916667 34.2578125  C 45.6065538194445 33.7630208333333  45.8333333333333 33.1770833333333  45.8333333333333 32.5  L 45.8333333333333 27.5  C 45.8333333333333 26.8229166666667  45.6065538194445 26.2369791666667  45.1529947916667 25.7421875  C 44.6994357638889 25.2473958333333  44.1623263888889 25  43.5416666666667 25  L 32 25  L 32 12.5  C 32.0833333333333 11.8229166666667  31.8565538194445 11.2369791666667  31.4029947916667 10.7421875  C 30.9494357638889 10.2473958333333  30.4123263888889 10  29.7916666666667 10  L 25.2083333333333 10  C 24.5876736111111 10  24.0505642361111 10.2473958333333  23.5970052083333 10.7421875  C 23.1434461805556 11.2369791666667  22.9166666666667 11.8229166666667  23 12.5  L 23 25  L 11.4583333333333 25  C 10.8376736111111 25  10.3005642361111 25.2473958333333  9.84700520833333 25.7421875  C 9.39344618055556 26.2369791666667  9.16666666666667 26.8229166666667  9.16666666666667 27.5  L 9.16666666666667 32.5  C 9.16666666666667 33.1770833333333  9.39344618055556 33.7630208333333  9.84700520833333 34.2578125  C 10.3005642361111 34.7526041666667  10.8376736111111 35  11.4583333333333 35  L 23 35  L 23 47.5  C 22.9166666666667 48.1770833333333  23.1434461805556 48.7630208333333  23.5970052083333 49.2578125  C 24.0505642361111 49.7526041666667  24.5876736111111 50  25.2083333333333 50  L 29.7916666666667 50  C 30.4123263888889 50  30.9494357638889 49.7526041666667  31.4029947916667 49.2578125  C 31.8565538194445 48.7630208333333  32.0833333333333 48.1770833333333  32 47.5  L 32 35  L 43.5416666666667 35  C 44.1623263888889 35  44.6994357638889 34.7526041666667  45.1529947916667 34.2578125  Z M 51.9742838541667 3.30078125  C 53.9914279513889 5.50130208333333  55 8.15104166666666  55 11.25  L 55 48.75  C 55 51.8489583333333  53.9914279513889 54.4986979166667  51.9742838541667 56.69921875  C 49.9571397569445 58.8997395833333  47.5282118055556 60  44.6875 60  L 10.3125 60  C 7.47178819444444 60  5.04286024305556 58.8997395833333  3.02571614583333 56.69921875  C 1.00857204861111 54.4986979166667  0 51.8489583333333  0 48.75  L 0 11.25  C 0 8.15104166666666  1.00857204861111 5.50130208333333  3.02571614583333 3.30078125  C 5.04286024305556 1.10026041666666  7.47178819444444 0  10.3125 0  L 44.6875 0  C 47.5282118055556 0  49.9571397569445 1.10026041666666  51.9742838541667 3.30078125  Z " fill-rule="nonzero" fill="#ffffff" stroke="none" transform="matrix(1 0 0 1 534 2463 )" />
  </g>
</svg>