<?xml version="1.0" encoding="utf-8"?>
<svg version="1.1" xmlns:xlink="http://www.w3.org/1999/xlink" width="31px" height="36px" xmlns="http://www.w3.org/2000/svg">
  <g transform="matrix(1 0 0 1 -236 -489 )">
    <path d="M 25.8333333333333 10.2857142857143  C 25.8333333333333 12.2544642857143  25.3018663194444 14.0758928571429  24.2389322916667 15.75  C 24.8713107638889 15.9375  25.4734157986111 16.1919642857143  26.0452473958333 16.5133928571429  C 26.6170789930556 16.8348214285714  27.2158203125 17.3236607142857  27.8414713541667 17.9799107142857  C 28.4671223958333 18.6361607142857  29.001953125 19.4095982142857  29.4459635416667 20.3002232142857  C 29.8899739583333 21.1908482142857  30.2599826388889 22.3426339285714  30.5559895833333 23.7555803571429  C 30.8519965277778 25.1685267857143  31 26.7522321428571  31 28.5066964285714  C 31 30.5691964285714  30.3272569444444 32.3337053571429  28.9817708333333 33.8002232142857  C 27.6362847222222 35.2667410714286  26.0149739583333 36  24.1178385416667 36  L 6.88216145833333 36  C 4.98502604166667 36  3.36371527777778 35.2667410714286  2.01822916666667 33.8002232142857  C 0.672743055555555 32.3337053571429  0 30.5691964285714  0 28.5066964285714  C 0 26.7522321428571  0.148003472222222 25.1685267857143  0.444010416666667 23.7555803571429  C 0.740017361111111 22.3426339285714  1.11002604166667 21.1908482142857  1.55403645833333 20.3002232142857  C 1.998046875 19.4095982142857  2.53287760416667 18.6361607142857  3.15852864583333 17.9799107142857  C 3.7841796875 17.3236607142857  4.38292100694445 16.8348214285714  4.95475260416667 16.5133928571429  C 5.52658420138889 16.1919642857143  6.12868923611111 15.9375  6.76106770833333 15.75  C 5.69813368055556 14.0758928571429  5.16666666666667 12.2544642857143  5.16666666666667 10.2857142857143  C 5.16666666666667 8.89285714285714  5.43912760416667 7.56361607142857  5.98404947916667 6.29799107142857  C 6.52897135416667 5.03236607142857  7.265625 3.9375  8.19401041666667 3.01339285714286  C 9.12239583333333 2.08928571428571  10.2223307291667 1.35602678571429  11.4938151041667 0.81361607142857  C 12.7652994791667 0.271205357142855  14.1006944444444 0  15.5 0  C 16.8993055555556 0  18.2347005208333 0.271205357142855  19.5061848958333 0.81361607142857  C 20.7776692708333 1.35602678571429  21.8776041666667 2.08928571428571  22.8059895833333 3.01339285714286  C 23.734375 3.9375  24.4710286458333 5.03236607142857  25.0159505208333 6.29799107142857  C 25.5608723958333 7.56361607142857  25.8333333333333 8.89285714285714  25.8333333333333 10.2857142857143  Z M 20.9794921875 4.83147321428572  C 19.4658203125 3.32477678571429  17.6393229166667 2.57142857142857  15.5 2.57142857142857  C 13.3606770833333 2.57142857142857  11.5341796875 3.32477678571429  10.0205078125 4.83147321428572  C 8.5068359375 6.33816964285714  7.75 8.15625  7.75 10.2857142857143  C 7.75 12.4151785714286  8.5068359375 14.2332589285714  10.0205078125 15.7399553571429  C 11.5341796875 17.2466517857143  13.3606770833333 18  15.5 18  C 17.6393229166667 18  19.4658203125 17.2466517857143  20.9794921875 15.7399553571429  C 22.4931640625 14.2332589285714  23.25 12.4151785714286  23.25 10.2857142857143  C 23.25 8.15625  22.4931640625 6.33816964285714  20.9794921875 4.83147321428572  Z M 6.88216145833333 33  L 24.1178385416667 33  C 25.3018663194444 33.4285714285714  26.3143446180556 32.9497767857143  27.1552734375 31.9921875  C 27.9962022569444 31.0345982142857  28.4166666666667 29.8727678571429  28.4166666666667 28.5066964285714  C 28.4166666666667 25.3058035714286  27.8885633680556 22.78125  26.8323567708333 20.9330357142857  C 25.7761501736111 19.0848214285714  24.2591145833333 18.1138392857143  22.28125 18.0200892857143  C 20.3302951388889 19.7209821428571  18.0698784722222 20.5714285714286  15.5 20.5714285714286  C 12.9301215277778 20.5714285714286  10.6697048611111 19.7209821428571  8.71875 18.0200892857143  C 6.74088541666667 18.1138392857143  5.22384982638889 19.0848214285714  4.16764322916667 20.9330357142857  C 3.11143663194444 22.78125  2.58333333333333 25.3058035714286  2.58333333333333 28.5066964285714  C 2.58333333333333 29.8727678571429  3.00379774305556 31.0345982142857  3.8447265625 31.9921875  C 4.68565538194445 32.9497767857143  5.69813368055556 33.4285714285714  6.88216145833333 33  Z " fill-rule="nonzero" fill="#ffffff" stroke="none" transform="matrix(1 0 0 1 236 489 )" />
  </g>
</svg>