<?xml version="1.0" encoding="utf-8"?>
<svg version="1.1" xmlns:xlink="http://www.w3.org/1999/xlink" width="32px" height="34px" xmlns="http://www.w3.org/2000/svg">
  <g transform="matrix(1 0 0 1 -241 -320 )">
    <path d="M 22.2884615384615 25.7940848214286  C 22.8269230769231 25.1806175595238  23.0961538461538 24.4122023809524  23.0961538461538 23.4888392857143  C 23.0961538461538 22.7678571428571  23.0608974358974 22.0911458333333  22.9903846153846 21.4587053571429  C 22.9198717948718 20.8262648809524  22.7852564102564 20.190662202381  22.5865384615385 19.5518973214286  C 22.3878205128205 18.9131324404762  22.1346153846154 18.3692336309524  21.8269230769231 17.9202008928571  C 21.5192307692308 17.4711681547619  21.1089743589744 17.1043526785714  20.5961538461538 16.8197544642857  C 20.0833333333333 16.53515625  19.5 16.3928571428571  18.8461538461538 16.3928571428571  C 18.7692307692308 16.4434523809524  18.5544871794872 16.5731026785714  18.2019230769231 16.7818080357143  C 17.849358974359 16.9905133928571  17.5769230769231 17.1454613095238  17.3846153846154 17.2466517857143  C 17.1923076923077 17.3478422619048  16.9326923076923 17.4743303571429  16.6057692307692 17.6261160714286  C 16.2788461538462 17.7779017857143  15.9647435897436 17.8854166666667  15.6634615384615 17.9486607142857  C 15.3621794871795 18.0119047619048  15.0641025641026 18.0435267857143  14.7692307692308 18.0435267857143  C 14.474358974359 18.0435267857143  14.1762820512821 18.0119047619048  13.875 17.9486607142857  C 13.5737179487179 17.8854166666667  13.2596153846154 17.7779017857143  12.9326923076923 17.6261160714286  C 12.6057692307692 17.4743303571429  12.3461538461538 17.3478422619048  12.1538461538462 17.2466517857143  C 11.9615384615385 17.1454613095238  11.6891025641026 16.9905133928571  11.3365384615385 16.7818080357143  C 10.9839743589744 16.5731026785714  10.7692307692308 16.4434523809524  10.6923076923077 16.3928571428571  C 10.0384615384615 16.3928571428571  9.45512820512821 16.53515625  8.94230769230769 16.8197544642857  C 8.42948717948718 17.1043526785714  8.01923076923077 17.4711681547619  7.71153846153846 17.9202008928571  C 7.40384615384615 18.3692336309524  7.15064102564103 18.9131324404762  6.95192307692308 19.5518973214286  C 6.75320512820513 20.190662202381  6.61858974358974 20.8262648809524  6.54807692307692 21.4587053571429  C 6.4775641025641 22.0911458333333  6.44230769230769 22.7678571428571  6.44230769230769 23.4888392857143  C 6.44230769230769 24.4122023809524  6.71153846153846 25.1806175595238  7.25 25.7940848214286  C 7.78846153846154 26.4075520833333  8.44871794871795 26.7142857142857  9.23076923076923 26.7142857142857  L 20.3076923076923 26.7142857142857  C 21.0897435897436 26.7142857142857  21.75 26.4075520833333  22.2884615384615 25.7940848214286  Z M 18.2980769230769 15.6908482142857  C 19.2788461538462 14.7295386904762  19.7692307692308 13.5721726190476  19.7692307692308 12.21875  C 19.7692307692308 10.8526785714286  19.2788461538462 9.68898809523809  18.2980769230769 8.72767857142857  C 17.3173076923077 7.76636904761904  16.1410256410256 7.28571428571429  14.7692307692308 7.28571428571429  C 13.3974358974359 7.28571428571429  12.2211538461538 7.76636904761904  11.2403846153846 8.72767857142857  C 10.2596153846154 9.68898809523809  9.76923076923077 10.8526785714286  9.76923076923077 12.21875  C 9.76923076923077 13.5721726190476  10.2596153846154 14.7295386904762  11.2403846153846 15.6908482142857  C 12.2211538461538 16.6521577380952  13.3974358974359 17.1328125  14.7692307692308 17.1328125  C 16.1410256410256 17.1328125  17.3173076923077 16.6521577380952  18.2980769230769 15.6908482142857  Z M 31.8269230769231 22.0279017857143  C 31.9423076923077 22.1417410714286  32 22.2872023809524  32 22.4642857142857  L 32 26.1071428571429  C 32 26.2842261904762  31.9423076923077 26.4296875  31.8269230769231 26.5435267857143  C 31.7115384615385 26.6573660714286  31.5641025641026 26.7142857142857  31.3846153846154 26.7142857142857  L 29.5384615384615 26.7142857142857  L 29.5384615384615 30.9642857142857  C 29.5384615384615 31.7991071428571  29.2371794871795 32.5137648809524  28.6346153846154 33.1082589285714  C 28.0320512820513 33.7027529761905  27.3076923076923 34  26.4615384615385 34  L 3.07692307692308 34  C 2.23076923076923 34  1.50641025641026 33.7027529761905  0.903846153846154 33.1082589285714  C 0.301282051282051 32.5137648809524  0 31.7991071428571  0 30.9642857142857  L 0 3.03571428571429  C 0 2.20089285714286  0.301282051282051 1.48623511904762  0.903846153846154 0.891741071428573  C 1.50641025641026 0.297247023809524  2.23076923076923 0  3.07692307692308 0  L 26.4615384615385 0  C 27.3076923076923 0  28.0320512820513 0.297247023809524  28.6346153846154 0.891741071428573  C 29.2371794871795 1.48623511904762  29.5384615384615 2.20089285714286  29.5384615384615 3.03571428571429  L 29.5384615384615 7.28571428571429  L 31.3846153846154 7.28571428571429  C 31.5641025641026 7.28571428571429  31.7115384615385 7.34263392857143  31.8269230769231 7.45647321428571  C 31.9423076923077 7.5703125  32 7.71577380952381  32 7.89285714285714  L 32 11.5357142857143  C 32 11.7127976190476  31.9423076923077 11.8582589285714  31.8269230769231 11.9720982142857  C 31.7115384615385 12.0859375  31.5641025641026 12.1428571428571  31.3846153846154 12.1428571428571  L 29.5384615384615 12.1428571428571  L 29.5384615384615 14.5714285714286  L 31.3846153846154 14.5714285714286  C 31.5641025641026 14.5714285714286  31.7115384615385 14.6283482142857  31.8269230769231 14.7421875  C 31.9423076923077 14.8560267857143  32 15.0014880952381  32 15.1785714285714  L 32 18.8214285714286  C 32 18.9985119047619  31.9423076923077 19.1439732142857  31.8269230769231 19.2578125  C 31.7115384615385 19.3716517857143  31.5641025641026 19.4285714285714  31.3846153846154 19.4285714285714  L 29.5384615384615 19.4285714285714  L 29.5384615384615 21.8571428571429  L 31.3846153846154 21.8571428571429  C 31.5641025641026 21.8571428571429  31.7115384615385 21.9140625  31.8269230769231 22.0279017857143  Z " fill-rule="nonzero" fill="#ffffff" stroke="none" transform="matrix(1 0 0 1 241 320 )" />
  </g>
</svg>