<?xml version="1.0" encoding="utf-8"?>
<svg version="1.1" xmlns:xlink="http://www.w3.org/1999/xlink" width="30px" height="27px" xmlns="http://www.w3.org/2000/svg">
  <g transform="matrix(1 0 0 1 -255 -254 )">
    <path d="M 10.0864955357143 9.6591796875  C 10.5050223214286 10.0986328125  10.7142857142857 10.62890625  10.7142857142857 11.25  C 10.7142857142857 11.87109375  10.5050223214286 12.4013671875  10.0864955357143 12.8408203125  C 9.66796875 13.2802734375  9.16294642857143 13.5  8.57142857142857 13.5  C 7.97991071428572 13.5  7.47488839285714 13.2802734375  7.05636160714286 12.8408203125  C 6.63783482142857 12.4013671875  6.42857142857143 11.87109375  6.42857142857143 11.25  C 6.42857142857143 10.62890625  6.63783482142857 10.0986328125  7.05636160714286 9.6591796875  C 7.47488839285714 9.2197265625  7.97991071428572 9  8.57142857142857 9  C 9.16294642857143 9  9.66796875 9.2197265625  10.0864955357143 9.6591796875  Z M 16.5150669642857 9.6591796875  C 16.93359375 10.0986328125  17.1428571428571 10.62890625  17.1428571428571 11.25  C 17.1428571428571 11.87109375  16.93359375 12.4013671875  16.5150669642857 12.8408203125  C 16.0965401785714 13.2802734375  15.5915178571429 13.5  15 13.5  C 14.4084821428571 13.5  13.9034598214286 13.2802734375  13.4849330357143 12.8408203125  C 13.06640625 12.4013671875  12.8571428571429 11.87109375  12.8571428571429 11.25  C 12.8571428571429 10.62890625  13.06640625 10.0986328125  13.4849330357143 9.6591796875  C 13.9034598214286 9.2197265625  14.4084821428571 9  15 9  C 15.5915178571429 9  16.0965401785714 9.2197265625  16.5150669642857 9.6591796875  Z M 22.9436383928571 9.6591796875  C 23.3621651785714 10.0986328125  23.5714285714286 10.62890625  23.5714285714286 11.25  C 23.5714285714286 11.87109375  23.3621651785714 12.4013671875  22.9436383928571 12.8408203125  C 22.5251116071429 13.2802734375  22.0200892857143 13.5  21.4285714285714 13.5  C 20.8370535714286 13.5  20.33203125 13.2802734375  19.9135044642857 12.8408203125  C 19.4949776785714 12.4013671875  19.2857142857143 11.87109375  19.2857142857143 11.25  C 19.2857142857143 10.62890625  19.4949776785714 10.0986328125  19.9135044642857 9.6591796875  C 20.33203125 9.2197265625  20.8370535714286 9  21.4285714285714 9  C 22.0200892857143 9  22.5251116071429 9.2197265625  22.9436383928571 9.6591796875  Z M 21.38671875 3.4716796875  C 19.4056919642857 2.6572265625  17.2767857142857 2.25  15 2.25  C 12.7232142857143 2.25  10.5943080357143 2.6572265625  8.61328125 3.4716796875  C 6.63225446428571 4.2861328125  5.05859375 5.384765625  3.89229910714286 6.767578125  C 2.72600446428571 8.150390625  2.14285714285714 9.64453125  2.14285714285714 11.25  C 2.14285714285714 12.5625  2.54185267857143 13.8134765625  3.33984375 15.0029296875  C 4.13783482142857 16.1923828125  5.26227678571429 17.220703125  6.71316964285714 18.087890625  L 8.16964285714286 18.966796875  L 7.71763392857143 20.654296875  C 7.44977678571429 21.720703125  7.05915178571429 22.728515625  6.54575892857143 23.677734375  C 8.2421875 22.939453125  9.77678571428572 21.9375  11.1495535714286 20.671875  L 11.8694196428571 20.00390625  L 12.8236607142857 20.109375  C 13.59375 20.203125  14.3191964285714 20.25  15 20.25  C 17.2767857142857 20.25  19.4056919642857 19.8427734375  21.38671875 19.0283203125  C 23.3677455357143 18.2138671875  24.94140625 17.115234375  26.1077008928571 15.732421875  C 27.2739955357143 14.349609375  27.8571428571429 12.85546875  27.8571428571429 11.25  C 27.8571428571429 9.64453125  27.2739955357143 8.150390625  26.1077008928571 6.767578125  C 24.94140625 5.384765625  23.3677455357143 4.2861328125  21.38671875 3.4716796875  Z M 28.8113839285714 6.8818359375  C 29.6037946428571 8.2705078125  30 9.7265625  30 11.25  C 30 13.2890625  29.3303571428571 15.1728515625  27.9910714285714 16.9013671875  C 26.6517857142857 18.6298828125  24.8325892857143 19.9951171875  22.5334821428571 20.9970703125  C 20.234375 21.9990234375  17.7232142857143 22.5  15 22.5  C 14.21875 22.5  13.4095982142857 22.453125  12.5725446428571 22.359375  C 10.3627232142857 24.41015625  7.79575892857143 25.828125  4.87165178571429 26.61328125  C 4.32477678571429 26.77734375  3.68861607142857 26.90625  2.96316964285714 27  L 2.87946428571429 27  C 2.71205357142857 27  2.56138392857143 26.9384765625  2.42745535714286 26.8154296875  C 2.29352678571429 26.6923828125  2.20424107142857 26.53125  2.15959821428571 26.33203125  L 2.15959821428571 26.314453125  C 2.12611607142857 26.267578125  2.12332589285714 26.197265625  2.15122767857143 26.103515625  C 2.17912946428571 26.009765625  2.19029017857143 25.951171875  2.18470982142857 25.927734375  C 2.17912946428571 25.904296875  2.20424107142857 25.8486328125  2.26004464285714 25.7607421875  L 2.36049107142857 25.6025390625  C 2.36049107142857 25.6025390625  2.39955357142857 25.552734375  2.47767857142857 25.453125  C 2.55580357142857 25.353515625  2.60044642857143 25.30078125  2.61160714285714 25.294921875  C 2.68973214285714 25.201171875  2.86272321428571 24.9990234375  3.13058035714286 24.6884765625  C 3.3984375 24.3779296875  3.59095982142857 24.1552734375  3.70814732142857 24.0205078125  C 3.82533482142857 23.8857421875  3.99832589285714 23.654296875  4.22712053571429 23.326171875  C 4.45591517857143 22.998046875  4.63727678571429 22.69921875  4.77120535714286 22.4296875  C 4.90513392857143 22.16015625  5.05580357142857 21.814453125  5.22321428571429 21.392578125  C 5.390625 20.970703125  5.53571428571429 20.525390625  5.65848214285714 20.056640625  C 3.90625 19.013671875  2.52511160714286 17.724609375  1.51506696428571 16.189453125  C 0.505022321428571 14.654296875  0 13.0078125  0 11.25  C 0 9.7265625  0.396205357142857 8.2705078125  1.18861607142857 6.8818359375  C 1.98102678571429 5.4931640625  3.046875 4.294921875  4.38616071428571 3.287109375  C 5.72544642857143 2.279296875  7.32142857142857 1.4794921875  9.17410714285714 0.887695312499999  C 11.0267857142857 0.295898437499999  12.96875 0  15 0  C 17.03125 0  18.9732142857143 0.295898437499999  20.8258928571429 0.887695312499999  C 22.6785714285714 1.4794921875  24.2745535714286 2.279296875  25.6138392857143 3.287109375  C 26.953125 4.294921875  28.0189732142857 5.4931640625  28.8113839285714 6.8818359375  Z " fill-rule="nonzero" fill="#ffffff" stroke="none" fill-opacity="0.996078431372549" transform="matrix(1 0 0 1 255 254 )" />
  </g>
</svg>