<?xml version="1.0" encoding="utf-8"?>
<svg version="1.1" xmlns:xlink="http://www.w3.org/1999/xlink" width="33px" height="33px" xmlns="http://www.w3.org/2000/svg">
  <g transform="matrix(1 0 0 1 -1093 -1884 )">
    <path d="M 32.2587890625 19.4541015625  C 32.3948567708333 19.5901692708333  32.462890625 19.7513020833333  32.462890625 19.9375  C 32.462890625 20.0091145833333  32.4557291666667 20.0592447916667  32.44140625 20.087890625  C 31.5247395833333 23.9264322916667  29.60546875 27.0380859375  26.68359375 29.4228515625  C 23.76171875 31.8076171875  20.3385416666667 33  16.4140625 33  C 14.3229166666667 33  12.2998046875 32.6061197916667  10.3447265625 31.818359375  C 8.3896484375 31.0305989583333  6.64583333333333 29.90625  5.11328125 28.4453125  L 2.341796875 31.216796875  C 2.06966145833333 31.4889322916667  1.74739583333333 31.625  1.375 31.625  C 1.00260416666667 31.625  0.680338541666667 31.4889322916667  0.408203125 31.216796875  C 0.136067708333333 30.9446614583333  0 30.6223958333333  0 30.25  L 0 20.625  C 0 20.2526041666667  0.136067708333333 19.9303385416667  0.408203125 19.658203125  C 0.680338541666667 19.3860677083333  1.00260416666667 19.25  1.375 19.25  L 11 19.25  C 11.3723958333333 19.25  11.6946614583333 19.3860677083333  11.966796875 19.658203125  C 12.2389322916667 19.9303385416667  12.375 20.2526041666667  12.375 20.625  C 12.375 20.9973958333333  12.2389322916667 21.3196614583333  11.966796875 21.591796875  L 9.0234375 24.53515625  C 10.0403645833333 25.48046875  11.193359375 26.2109375  12.482421875 26.7265625  C 13.771484375 27.2421875  15.1106770833333 27.5  16.5 27.5  C 18.4192708333333 27.5  20.2096354166667 27.0345052083333  21.87109375 26.103515625  C 23.5325520833333 25.1725260416667  24.8645833333333 23.890625  25.8671875 22.2578125  C 26.0247395833333 22.0143229166667  26.404296875 21.1764322916667  27.005859375 19.744140625  C 27.1204427083333 19.4147135416667  27.3352864583333 19.25  27.650390625 19.25  L 31.775390625 19.25  C 31.9615885416667 19.25  32.1227213541667 19.3180338541667  32.2587890625 19.4541015625  Z M 32.591796875 1.783203125  C 32.8639322916667 2.05533854166666  33 2.37760416666666  33 2.75  L 33 12.375  C 33 12.7473958333333  32.8639322916667 13.0696614583333  32.591796875 13.341796875  C 32.3196614583333 13.6139322916667  31.9973958333333 13.75  31.625 13.75  L 22 13.75  C 21.6276041666667 13.75  21.3053385416667 13.6139322916667  21.033203125 13.341796875  C 20.7610677083333 13.0696614583333  20.625 12.7473958333333  20.625 12.375  C 20.625 12.0026041666667  20.7610677083333 11.6803385416667  21.033203125 11.408203125  L 23.998046875 8.443359375  C 21.8782552083333 6.48111979166666  19.37890625 5.5  16.5 5.5  C 14.5807291666667 5.5  12.7903645833333 5.96549479166666  11.12890625 6.896484375  C 9.46744791666667 7.82747395833333  8.13541666666667 9.109375  7.1328125 10.7421875  C 6.97526041666667 10.9856770833333  6.595703125 11.8235677083333  5.994140625 13.255859375  C 5.87955729166667 13.5852864583333  5.66471354166667 13.75  5.349609375 13.75  L 1.07421875 13.75  C 0.888020833333333 13.75  0.726888020833333 13.6819661458333  0.5908203125 13.5458984375  C 0.454752604166667 13.4098307291667  0.38671875 13.2486979166667  0.38671875 13.0625  L 0.38671875 12.912109375  C 1.31770833333333 9.07356770833333  3.25130208333333 5.9619140625  6.1875 3.5771484375  C 9.12369791666667 1.1923828125  12.5611979166667 0  16.5 0  C 18.5911458333333 0  20.625 0.397460937500001  22.6015625 1.1923828125  C 24.578125 1.9873046875  26.3326822916667 3.10807291666666  27.865234375 4.5546875  L 30.658203125 1.783203125  C 30.9303385416667 1.51106770833333  31.2526041666667 1.375  31.625 1.375  C 31.9973958333333 1.375  32.3196614583333 1.51106770833333  32.591796875 1.783203125  Z " fill-rule="nonzero" fill="#ffffff" stroke="none" transform="matrix(1 0 0 1 1093 1884 )" />
  </g>
</svg>