<?xml version="1.0" encoding="utf-8"?>
<svg version="1.1" xmlns:xlink="http://www.w3.org/1999/xlink" width="32px" height="32px" xmlns="http://www.w3.org/2000/svg">
  <g transform="matrix(1 0 0 1 -15 -439 )">
    <path d="M 29.8571428571429 6.63109954456734  C 31.2857142857143 8.67837779223596  32 10.9095640858816  32 13.3246584255042  C 32 15.7397527651269  31.2857142857143 17.9709390587725  29.8571428571429 20.0182173064411  C 28.4285714285714 22.0654955541097  26.4880952380952 23.6824983734548  24.0357142857143 24.8692257644763  C 21.5833333333333 26.0559531554977  18.9047619047619 26.6493168510085  16 26.6493168510085  C 15.1666666666667 26.6493168510085  14.3035714285714 26.5937974409022  13.4107142857143 26.4827586206897  C 11.0535714285714 28.9117328128389  8.31547619047619 30.5911949685535  5.19642857142857 31.5211450878334  C 4.61309523809524 31.7154630232054  3.93452380952381 31.8681414009976  3.16071428571429 31.9791802212102  C 2.95833333333333 32.0069399262633  2.77678571428571 31.9444805898937  2.61607142857143 31.7918022121015  C 2.45535714285714 31.6391238343093  2.35119047619048 31.437865972674  2.30357142857143 31.1880286271958  L 2.30357142857143 31.167208848406  C 2.26785714285714 31.1116894382997  2.26488095238095 31.0284103231403  2.29464285714286 30.9173715029278  C 2.32440476190476 30.8063326827152  2.33630952380952 30.7369334200824  2.33035714285714 30.7091737150293  C 2.32440476190476 30.6814140099761  2.35119047619048 30.615484710475  2.41071428571429 30.5113858165257  L 2.51785714285714 30.324007807417  C 2.51785714285714 30.324007807417  2.55952380952381 30.2650184341791  2.64285714285714 30.1470396877033  C 2.72619047619048 30.0290609412275  2.77380952380952 29.9666016048579  2.78571428571429 29.9596616785947  C 2.86904761904762 29.8486228583821  3.05357142857143 29.6091954022989  3.33928571428571 29.2413793103448  C 3.625 28.8735632183908  3.83035714285714 28.609846020386  3.95535714285714 28.4502277163305  C 4.08035714285714 28.290609412275  4.26488095238095 28.0164823248753  4.50892857142857 27.6278464541314  C 4.75297619047619 27.2392105833876  4.94642857142857 26.8852743439601  5.08928571428571 26.5660377358491  C 5.23214285714286 26.246801127738  5.39285714285714 25.8373454782043  5.57142857142857 25.3376707872479  C 5.75 24.8379960962915  5.90476190476191 24.3105617002819  6.03571428571429 23.7553675992193  C 4.16666666666667 22.5200607243548  2.69345238095238 20.9932769464324  1.61607142857143 19.1750162654522  C 0.538690476190476 17.3567555844719  0 15.4066363044893  0 13.3246584255042  C 0 11.5202775970505  0.422619047619048 9.7957059206246  1.26785714285714 8.15094339622642  C 2.11309523809524 6.50618087182824  3.25 5.08696595098677  4.67857142857143 3.89329863370202  C 6.10714285714286 2.69963131641726  7.80952380952381 1.75233138147907  9.78571428571429 1.05139882888744  C 11.7619047619048 0.350466276295812  13.8333333333333 0  16 0  C 18.9047619047619 0  21.5833333333333 0.593363695510735  24.0357142857143 1.78009108653221  C 26.4880952380952 2.96681847755368  28.4285714285714 4.58382129689872  29.8571428571429 6.63109954456734  Z " fill-rule="nonzero" fill="#ffffff" stroke="none" transform="matrix(1 0 0 1 15 439 )" />
  </g>
</svg>