<?xml version="1.0" encoding="utf-8"?>
<svg version="1.1" xmlns:xlink="http://www.w3.org/1999/xlink" width="32px" height="32px" xmlns="http://www.w3.org/2000/svg">
  <g transform="matrix(1 0 0 1 -15 -488 )">
    <path d="M 19.7708333333333 19.7708333333333  C 20.8125 18.7291666666667  21.3333333333333 17.4722222222222  21.3333333333333 16  C 21.3333333333333 14.5277777777778  20.8125 13.2708333333333  19.7708333333333 12.2291666666667  C 18.7291666666667 11.1875  17.4722222222222 10.6666666666667  16 10.6666666666667  C 14.5277777777778 10.6666666666667  13.2708333333333 11.1875  12.2291666666667 12.2291666666667  C 11.1875 13.2708333333333  10.6666666666667 14.5277777777778  10.6666666666667 16  C 10.6666666666667 17.4722222222222  11.1875 18.7291666666667  12.2291666666667 19.7708333333333  C 13.2708333333333 20.8125  14.5277777777778 21.3333333333333  16 21.3333333333333  C 17.4722222222222 21.3333333333333  18.7291666666667 20.8125  19.7708333333333 19.7708333333333  Z M 31.8333333333333 13.2395833333333  C 31.9444444444444 13.3854166666667  32 13.5486111111111  32 13.7291666666667  L 32 18.3541666666667  C 32 18.5208333333333  31.9444444444444 18.6805555555556  31.8333333333333 18.8333333333333  C 31.7222222222222 18.9861111111111  31.5833333333333 19.0763888888889  31.4166666666667 19.1041666666667  L 27.5625 19.6875  C 27.2986111111111 20.4375  27.0277777777778 21.0694444444444  26.75 21.5833333333333  C 27.2361111111111 22.2777777777778  27.9791666666667 23.2361111111111  28.9791666666667 24.4583333333333  C 29.1180555555556 24.625  29.1875 24.7986111111111  29.1875 24.9791666666667  C 29.1875 25.1597222222222  29.125 25.3194444444444  29 25.4583333333333  C 28.625 25.9722222222222  27.9375 26.7222222222222  26.9375 27.7083333333333  C 25.9375 28.6944444444444  25.2847222222222 29.1875  24.9791666666667 29.1875  C 24.8125 29.1875  24.6319444444444 29.125  24.4375 29  L 21.5625 26.75  C 20.9513888888889 27.0694444444444  20.3194444444444 27.3333333333333  19.6666666666667 27.5416666666667  C 19.4444444444444 29.4305555555556  19.2430555555556 30.7222222222222  19.0625 31.4166666666667  C 18.9652777777778 31.8055555555556  18.7152777777778 32  18.3125 32  L 13.6875 32  C 13.4930555555556 32  13.3229166666667 31.9409722222222  13.1770833333333 31.8229166666667  C 13.03125 31.7048611111111  12.9513888888889 31.5555555555556  12.9375 31.375  L 12.3541666666667 27.5416666666667  C 11.6736111111111 27.3194444444444  11.0486111111111 27.0625  10.4791666666667 26.7708333333333  L 7.54166666666667 29  C 7.40277777777778 29.125  7.22916666666667 29.1875  7.02083333333333 29.1875  C 6.82638888888889 29.1875  6.65277777777778 29.1111111111111  6.5 28.9583333333333  C 4.75 27.375  3.60416666666667 26.2083333333333  3.0625 25.4583333333333  C 2.96527777777778 25.3194444444444  2.91666666666667 25.1597222222222  2.91666666666667 24.9791666666667  C 2.91666666666667 24.8125  2.97222222222222 24.6527777777778  3.08333333333333 24.5  C 3.29166666666667 24.2083333333333  3.64583333333333 23.7465277777778  4.14583333333333 23.1145833333333  C 4.64583333333333 22.4826388888889  5.02083333333333 21.9930555555556  5.27083333333333 21.6458333333333  C 4.89583333333333 20.9513888888889  4.61111111111111 20.2638888888889  4.41666666666667 19.5833333333333  L 0.604166666666667 19.0208333333333  C 0.423611111111111 18.9930555555556  0.277777777777778 18.90625  0.166666666666667 18.7604166666667  C 0.0555555555555556 18.6145833333333  0 18.4513888888889  0 18.2708333333333  L 0 13.6458333333333  C 0 13.4791666666667  0.0555555555555556 13.3194444444444  0.166666666666667 13.1666666666667  C 0.277777777777778 13.0138888888889  0.409722222222222 12.9236111111111  0.5625 12.8958333333333  L 4.4375 12.3125  C 4.63194444444444 11.6736111111111  4.90277777777778 11.0347222222222  5.25 10.3958333333333  C 4.69444444444444 9.60416666666667  3.95138888888889 8.64583333333333  3.02083333333333 7.52083333333333  C 2.88194444444444 7.35416666666667  2.8125 7.1875  2.8125 7.02083333333333  C 2.8125 6.88194444444444  2.875 6.72222222222222  3 6.54166666666667  C 3.36111111111111 6.04166666666667  4.04513888888889 5.29513888888889  5.05208333333333 4.30208333333333  C 6.05902777777778 3.30902777777778  6.71527777777778 2.8125  7.02083333333333 2.8125  C 7.20138888888889 2.8125  7.38194444444445 2.88194444444444  7.5625 3.02083333333333  L 10.4375 5.25  C 11.0486111111111 4.93055555555555  11.6805555555556 4.66666666666667  12.3333333333333 4.45833333333333  C 12.5555555555556 2.56944444444444  12.7569444444444 1.27777777777778  12.9375 0.583333333333332  C 13.0347222222222 0.194444444444443  13.2847222222222 0  13.6875 0  L 18.3125 0  C 18.5069444444444 0  18.6770833333333 0.059027777777775  18.8229166666667 0.177083333333332  C 18.96875 0.295138888888886  19.0486111111111 0.444444444444443  19.0625 0.625  L 19.6458333333333 4.45833333333333  C 20.3263888888889 4.68055555555555  20.9513888888889 4.9375  21.5208333333333 5.22916666666667  L 24.4791666666667 3  C 24.6041666666667 2.875  24.7708333333333 2.8125  24.9791666666667 2.8125  C 25.1597222222222 2.8125  25.3333333333333 2.88194444444444  25.5 3.02083333333333  C 27.2916666666667 4.67361111111111  28.4375 5.85416666666667  28.9375 6.5625  C 29.0347222222222 6.67361111111111  29.0833333333333 6.82638888888889  29.0833333333333 7.02083333333333  C 29.0833333333333 7.1875  29.0277777777778 7.34722222222222  28.9166666666667 7.5  C 28.7083333333333 7.79166666666667  28.3541666666667 8.25347222222222  27.8541666666667 8.88541666666667  C 27.3541666666667 9.51736111111111  26.9791666666667 10.0069444444444  26.7291666666667 10.3541666666667  C 27.0902777777778 11.0486111111111  27.375 11.7291666666667  27.5833333333333 12.3958333333333  L 31.3958333333333 12.9791666666667  C 31.5763888888889 13.0069444444444  31.7222222222222 13.09375  31.8333333333333 13.2395833333333  Z " fill-rule="nonzero" fill="#f2f2f2" stroke="none" transform="matrix(1 0 0 1 15 488 )" />
  </g>
</svg>