<?xml version="1.0" encoding="utf-8"?>
<svg version="1.1" xmlns:xlink="http://www.w3.org/1999/xlink" width="30px" height="29px" xmlns="http://www.w3.org/2000/svg">
  <g transform="matrix(1 0 0 1 -709 -116 )">
    <path d="M 8.1298828125 8.07583932853717  C 8.3740234375 7.79186650679456  8.49609375 7.41227018385292  8.49609375 6.93705035971223  C 8.49609375 6.46183053557154  8.3740234375 6.07933653077538  8.1298828125 5.78956834532374  C 7.8857421875 5.4998001598721  7.5634765625 5.35491606714628  7.1630859375 5.35491606714628  C 6.7431640625 5.35491606714628  6.3720703125 5.50269784172662  6.0498046875 5.79826139088729  C 5.7275390625 6.09382494004796  5.56640625 6.47342126298961  5.56640625 6.93705035971223  C 5.56640625 7.38908872901679  5.7275390625 7.7628896882494  6.0498046875 8.05845323741007  C 6.3720703125 8.35401678657074  6.7431640625 8.50179856115108  7.1630859375 8.50179856115108  C 7.5634765625 8.50179856115108  7.8857421875 8.35981215027977  8.1298828125 8.07583932853717  Z M 19.00634765625 16.6384892086331  C 19.25537109375 16.3834932054356  19.3798828125 16.087929656275  19.3798828125 15.7517985611511  C 19.3798828125 15.4272581934452  19.25537109375 15.1374900079936  19.00634765625 14.8824940047962  C 18.75732421875 14.6274980015987  18.4375 14.5  18.046875 14.5  C 17.783203125 14.5  17.54150390625 14.6303956834532  17.32177734375 14.8911870503597  C 17.10205078125 15.1519784172662  16.9921875 15.4388489208633  16.9921875 15.7517985611511  C 16.9921875 16.0763389288569  17.10205078125 16.3690047961631  17.32177734375 16.6297961630695  C 17.54150390625 16.890587529976  17.783203125 17.0209832134293  18.046875 17.0209832134293  C 18.4375 17.0209832134293  18.75732421875 16.8934852118305  19.00634765625 16.6384892086331  Z M 15.56396484375 8.07583932853717  C 15.80322265625 7.79186650679456  15.9228515625 7.41227018385292  15.9228515625 6.93705035971223  C 15.9228515625 6.46183053557154  15.80322265625 6.07933653077538  15.56396484375 5.78956834532374  C 15.32470703125 5.4998001598721  15.0048828125 5.35491606714628  14.6044921875 5.35491606714628  C 14.1845703125 5.35491606714628  13.8134765625 5.50269784172662  13.4912109375 5.79826139088729  C 13.1689453125 6.09382494004796  13.0078125 6.47342126298961  13.0078125 6.93705035971223  C 13.0078125 7.38908872901679  13.1689453125 7.7628896882494  13.4912109375 8.05845323741007  C 13.8134765625 8.35401678657074  14.1845703125 8.50179856115108  14.6044921875 8.50179856115108  C 15.0048828125 8.50179856115108  15.32470703125 8.35981215027977  15.56396484375 8.07583932853717  Z M 24.84375 16.6384892086331  C 25.09765625 16.3834932054356  25.224609375 16.087929656275  25.224609375 15.7517985611511  C 25.224609375 15.4272581934452  25.09765625 15.1374900079936  24.84375 14.8824940047962  C 24.58984375 14.6274980015987  24.2724609375 14.5  23.8916015625 14.5  C 23.6279296875 14.5  23.38623046875 14.6303956834532  23.16650390625 14.8911870503597  C 22.94677734375 15.1519784172662  22.8369140625 15.4388489208633  22.8369140625 15.7517985611511  C 22.8369140625 16.0763389288569  22.94677734375 16.3690047961631  23.16650390625 16.6297961630695  C 23.38623046875 16.890587529976  23.6279296875 17.0209832134293  23.8916015625 17.0209832134293  C 24.2724609375 17.0209832134293  24.58984375 16.8934852118305  24.84375 16.6384892086331  Z M 19.32861328125 4.32044364508393  C 20.35888671875 5.67076338928857  21.025390625 7.18045563549161  21.328125 8.84952038369305  C 21.025390625 8.80315747402078  20.68359375 8.77997601918465  20.302734375 8.77997601918465  C 18.65234375 8.77997601918465  17.1337890625 9.22621902478017  15.7470703125 10.1187050359712  C 14.3603515625 11.0111910471623  13.26904296875 12.2195243804956  12.47314453125 13.7437050359712  C 11.67724609375 15.2678856914468  11.279296875 16.9340527577938  11.279296875 18.742206235012  C 11.279296875 19.6462829736211  11.3916015625 20.5271782573941  11.6162109375 21.3848920863309  C 11.2744140625 21.4196642685851  10.9423828125 21.4370503597122  10.6201171875 21.4370503597122  C 10.3662109375 21.4370503597122  10.1220703125 21.4283573141487  9.8876953125 21.4109712230216  C 9.6533203125 21.3935851318945  9.384765625 21.3559152677858  9.08203125 21.2979616306954  C 8.779296875 21.2400079936051  8.56201171875 21.1994404476419  8.43017578125 21.1762589928058  C 8.29833984375 21.1530775379696  8.0322265625 21.0922262190248  7.6318359375 20.9937050359712  C 7.2314453125 20.8951838529177  6.9873046875 20.8343325339728  6.8994140625 20.8111510791367  L 3.193359375 23.0191846522782  L 4.248046875 19.2290167865707  C 1.416015625 16.8760991207034  0 14.0363709032774  0 10.7098321342926  C 0 8.75099920063949  0.47607421875 6.94864108713029  1.42822265625 5.30275779376499  C 2.38037109375 3.65687450039968  3.66943359375 2.36161071143085  5.29541015625 1.41696642685851  C 6.92138671875 0.472322142286169  8.6962890625 0  10.6201171875 0  C 12.3388671875 0  13.96240234375 0.382494004796164  15.49072265625 1.14748201438849  C 17.01904296875 1.91247002398082  18.29833984375 2.9701239008793  19.32861328125 4.32044364508393  Z M 28.74755859375 14.0218824940048  C 29.58251953125 15.4301558752998  30 16.9572342126299  30 18.6031175059952  C 30 19.9592326139089  29.66552734375 21.2544964028777  28.99658203125 22.4889088729017  C 28.32763671875 23.7233213429257  27.421875 24.8447242206235  26.279296875 25.8531175059952  L 27.0849609375 29  L 24.169921875 27.1049160671463  C 22.705078125 27.5337729816147  21.640625 27.7482014388489  20.9765625 27.7482014388489  C 19.326171875 27.7482014388489  17.8076171875 27.3396282973621  16.4208984375 26.5224820143885  C 15.0341796875 25.7053357314149  13.94287109375 24.5955235811351  13.14697265625 23.1930455635492  C 12.35107421875 21.7905675459632  11.953125 20.2605915267786  11.953125 18.6031175059952  C 11.953125 16.9456434852118  12.35107421875 15.4156674660272  13.14697265625 14.0131894484412  C 13.94287109375 12.6107114308553  15.0341796875 11.5008992805755  16.4208984375 10.6837529976019  C 17.8076171875 9.8666067146283  19.326171875 9.45803357314149  20.9765625 9.45803357314149  C 22.548828125 9.45803357314149  24.0283203125 9.8666067146283  25.4150390625 10.6837529976019  C 26.8017578125 11.5008992805755  27.91259765625 12.6136091127098  28.74755859375 14.0218824940048  Z " fill-rule="nonzero" fill="#fafafa" stroke="none" transform="matrix(1 0 0 1 709 116 )" />
  </g>
</svg>